<svg xmlns="http://www.w3.org/2000/svg" width="20" height="20" viewBox="0 0 20 20"><path d="M10 0a10 10 0 1010 10A10 10 0 0010 0zm6.805 4.564L14.269 7.1A5.19 5.19 0 0012.9 5.731l2.536-2.536a8.763 8.763 0 011.369 1.369zM10 13.871A3.871 3.871 0 1113.871 10 3.875 3.875 0 0110 13.871zm4.353-11.417l-2.667 2.667a5.179 5.179 0 00-3.372 0L5.647 2.454a8.717 8.717 0 018.706 0zm-9.789.741L7.1 5.731A5.19 5.19 0 005.731 7.1L3.195 4.564a8.763 8.763 0 011.369-1.369zm-2.11 2.452l2.667 2.667a5.179 5.179 0 000 3.372l-2.667 2.667a8.717 8.717 0 010-8.706zm.741 9.789L5.731 12.9A5.19 5.19 0 007.1 14.269l-2.536 2.536a8.765 8.765 0 01-1.369-1.369zm2.452 2.11l2.667-2.667a5.179 5.179 0 003.372 0l2.667 2.667a8.717 8.717 0 01-8.706 0zm9.789-.741L12.9 14.269a5.19 5.19 0 001.369-1.369l2.536 2.536a8.763 8.763 0 01-1.369 1.369zm2.11-2.452l-2.667-2.667a5.18 5.18 0 000-3.372l2.667-2.667a8.717 8.717 0 010 8.706z" fill="#33adff"/></svg>