<svg xmlns="http://www.w3.org/2000/svg" width="43.3" height="43.3" viewBox="0 0 43.3 43.3"><path d="M21.65 0A21.65 21.65 0 1043.3 21.65 21.646 21.646 0 0021.65 0zm11.175 36.805a18.718 18.718 0 01-22.349 0v-1.187a5.592 5.592 0 015.587-5.587c.969 0 2.4 1 5.587 1s4.609-1 5.587-1a5.592 5.592 0 015.587 5.587zM35.5 34.4a8.354 8.354 0 00-8.259-7.167c-1.79 0-2.654 1-5.587 1s-3.789-1-5.587-1A8.354 8.354 0 007.8 34.4a18.857 18.857 0 1127.691 0zM21.65 9.778a7.682 7.682 0 107.682 7.682 7.682 7.682 0 00-7.682-7.682zm0 12.571a4.889 4.889 0 114.889-4.889 4.892 4.892 0 01-4.889 4.889z" fill="#33adff"/></svg>