<svg xmlns="http://www.w3.org/2000/svg" width="21.872" height="25" viewBox="0 0 21.872 25"><path d="M16.795 14.06H5.077a.392.392 0 00-.391.391v1.562a.392.392 0 00.391.391h11.718a.392.392 0 00.391-.391v-1.562a.392.392 0 00-.391-.391zM19.568.278l-2.124 1.528L15.559.449a2.338 2.338 0 00-2.739 0l-1.884 1.357L9.052.449a2.338 2.338 0 00-2.739 0L4.428 1.806 2.3.278A1.454 1.454 0 000 1.459v22.082a1.456 1.456 0 002.3 1.181l2.128-1.53 1.885 1.357a2.338 2.338 0 002.739 0l1.884-1.357 1.885 1.357a2.338 2.338 0 002.739 0l1.884-1.357 2.124 1.528a1.453 1.453 0 002.3-1.177V1.459a1.455 1.455 0 00-2.3-1.181zm-.039 21.521l-2.085-1.5-3.256 2.343-3.256-2.343-3.257 2.344L4.418 20.3l-2.075 1.5V3.197l2.085 1.495 3.257-2.339 3.256 2.339L14.2 2.353l3.254 2.339 2.075-1.5zM16.795 8.592H5.077a.392.392 0 00-.391.391v1.562a.392.392 0 00.391.391h11.718a.392.392 0 00.391-.391V8.983a.392.392 0 00-.391-.391z" fill="#999"/></svg>