<svg xmlns="http://www.w3.org/2000/svg" width="23.079" height="20.195" viewBox="0 0 23.079 20.195"><path d="M20.195 3.606v-.721A2.885 2.885 0 0017.31 0H4.327A4.327 4.327 0 000 4.327v11.54a4.327 4.327 0 004.327 4.327h15.868a2.885 2.885 0 002.885-2.885V6.491a2.885 2.885 0 00-2.885-2.885zm.721 13.7a.722.722 0 01-.721.721H4.327a2.166 2.166 0 01-2.164-2.164V4.327a2.166 2.166 0 012.164-2.164H17.31a.722.722 0 01.721.721v1.442H5.049a.721.721 0 100 1.442h15.146a.722.722 0 01.721.721zM17.31 10.1a1.442 1.442 0 101.442 1.442A1.443 1.443 0 0017.31 10.1z" fill="#33adff"/></svg>