<svg xmlns="http://www.w3.org/2000/svg" width="19.252" height="20" viewBox="0 0 19.252 20"><path d="M18.767 11.745l-1.315-.759a7.869 7.869 0 000-1.972l1.315-.759a.965.965 0 00.445-1.109 9.983 9.983 0 00-2.32-4.016.968.968 0 00-1.187-.173l-1.313.758a7.827 7.827 0 00-1.707-.987V1.212A.968.968 0 0011.94.27a10.07 10.07 0 00-4.628 0 .968.968 0 00-.745.942v1.517a7.827 7.827 0 00-1.707.987l-1.313-.758a.968.968 0 00-1.187.173A9.983 9.983 0 00.04 7.147a.965.965 0 00.445 1.109l1.315.759a7.87 7.87 0 000 1.972l-1.315.759a.965.965 0 00-.445 1.109 9.983 9.983 0 002.32 4.016.968.968 0 001.187.173l1.313-.758a7.826 7.826 0 001.707.987v1.517a.968.968 0 00.745.942 10.07 10.07 0 004.628 0 .968.968 0 00.745-.942v-1.518a7.828 7.828 0 001.707-.987l1.313.758a.968.968 0 001.187-.173 9.983 9.983 0 002.32-4.016.965.965 0 00-.445-1.109zM16.124 15.8l-1.867-1.078a6.967 6.967 0 01-2.864 1.656v2.152a8.756 8.756 0 01-3.538 0v-2.157a6.968 6.968 0 01-2.864-1.656L3.124 15.8a8.71 8.71 0 01-1.771-3.063l1.871-1.082a7.025 7.025 0 010-3.31l-1.87-1.078A8.716 8.716 0 013.124 4.2l1.867 1.079a6.957 6.957 0 012.864-1.656V1.47a8.742 8.742 0 013.538 0v2.156a6.957 6.957 0 012.864 1.656L16.124 4.2a8.715 8.715 0 011.771 3.063l-1.868 1.078a7.025 7.025 0 010 3.31l1.868 1.078a8.71 8.71 0 01-1.771 3.071zm-6.5-9.667A3.871 3.871 0 1013.497 10a3.875 3.875 0 00-3.873-3.871zm0 6.452A2.581 2.581 0 1112.206 10a2.584 2.584 0 01-2.582 2.581z" fill="#33adff"/></svg>