<svg xmlns="http://www.w3.org/2000/svg" width="25.353" height="23.769" viewBox="0 0 25.353 23.769"><path d="M22.976 6.338h-1.292a4.318 4.318 0 00.5-1.981A4.364 4.364 0 0017.827 0c-2.06 0-3.392 1.055-5.1 3.382C11.018 1.055 9.686 0 7.626 0a4.364 4.364 0 00-4.358 4.358 4.257 4.257 0 00.5 1.981H2.377A2.377 2.377 0 000 8.715v6.338a.8.8 0 00.792.792h.792v5.318a2.608 2.608 0 002.6 2.6h16.98a2.608 2.608 0 002.6-2.6v-5.317h.792a.8.8 0 00.792-.792V8.715a2.377 2.377 0 00-2.372-2.377zM11.488 21.392h-7.3a.227.227 0 01-.228-.228v-5.318h5.547v-2.377h-7.13V8.715h9.111zM7.621 6.338a1.981 1.981 0 010-3.961c1.089 0 1.857.376 4.164 3.813l.1.149zm6.041-.149c2.308-3.437 3.075-3.813 4.164-3.813a1.981 1.981 0 010 3.961h-4.263zm9.314 7.279h-7.13v2.377h5.546v5.318a.227.227 0 01-.228.228h-7.3V8.715h9.111z" fill="#999"/></svg>