<svg xmlns="http://www.w3.org/2000/svg" width="30.084" height="25.092" viewBox="0 0 30.084 25.092"><path d="M29.782 12.064L16.914.727a2.778 2.778 0 00-3.747 0L.3 12.064a.942.942 0 00-.1 1.262l.535.689a.8.8 0 001.177.112l1.43-1.263V23.3a1.74 1.74 0 001.671 1.792h6.685a1.74 1.74 0 001.674-1.792v-5.822h3.34v5.825a1.74 1.74 0 001.671 1.792h6.689a1.738 1.738 0 001.671-1.779V12.863l1.438 1.267a.8.8 0 001.177-.112l.534-.688a.94.94 0 00.192-.657.918.918 0 00-.302-.609zm-5.557 10.339h-5.006v-5.825a1.74 1.74 0 00-1.671-1.792h-5.014a1.74 1.74 0 00-1.671 1.792v5.825H5.849V10.656l9.192-8.1 9.192 8.1z" fill="#999"/></svg>