<svg xmlns="http://www.w3.org/2000/svg" width="22.408" height="25.61" viewBox="0 0 22.408 25.61"><path d="M15.686 15.206c-1.436 0-2.126.8-4.482.8s-3.041-.8-4.482-.8A6.724 6.724 0 000 21.928v1.28a2.4 2.4 0 002.4 2.4h17.608a2.4 2.4 0 002.4-2.4v-1.28a6.724 6.724 0 00-6.722-6.722zm4.322 8H2.4v-1.28a4.329 4.329 0 014.322-4.322c.73 0 1.916.8 4.482.8 2.586 0 3.746-.8 4.482-.8a4.329 4.329 0 014.322 4.322zm-8.8-8.8A7.2 7.2 0 104 7.2a7.2 7.2 0 007.2 7.205zm0-12A4.8 4.8 0 116.4 7.2a4.809 4.809 0 014.8-4.8z" fill="#999"/></svg>