<svg xmlns="http://www.w3.org/2000/svg" width="19.252" height="20" viewBox="0 0 19.252 20"><defs><style>.a{fill:#33adff;}</style></defs><path class="a" d="M36.043,19.745l-1.315-.759a7.869,7.869,0,0,0,0-1.972l1.315-.759a.965.965,0,0,0,.445-1.109,9.983,9.983,0,0,0-2.32-4.016.968.968,0,0,0-1.187-.173l-1.313.758a7.827,7.827,0,0,0-1.707-.987V9.212a.968.968,0,0,0-.745-.942,10.07,10.07,0,0,0-4.628,0,.968.968,0,0,0-.745.942v1.517a7.827,7.827,0,0,0-1.707.987l-1.313-.758a.968.968,0,0,0-1.187.173,9.983,9.983,0,0,0-2.32,4.016.965.965,0,0,0,.445,1.109l1.315.759a7.87,7.87,0,0,0,0,1.972l-1.315.759a.965.965,0,0,0-.445,1.109,9.983,9.983,0,0,0,2.32,4.016.968.968,0,0,0,1.187.173l1.313-.758a7.826,7.826,0,0,0,1.707.987v1.517a.968.968,0,0,0,.745.942,10.07,10.07,0,0,0,4.628,0,.968.968,0,0,0,.745-.942V25.272a7.828,7.828,0,0,0,1.707-.987l1.313.758a.968.968,0,0,0,1.187-.173,9.983,9.983,0,0,0,2.32-4.016.965.965,0,0,0-.445-1.109ZM33.4,23.8l-1.867-1.078a6.967,6.967,0,0,1-2.864,1.656V26.53a8.756,8.756,0,0,1-3.538,0V24.373a6.968,6.968,0,0,1-2.864-1.656L20.4,23.8a8.71,8.71,0,0,1-1.771-3.063L20.5,19.655a7.025,7.025,0,0,1,0-3.31L18.63,15.267A8.716,8.716,0,0,1,20.4,12.2l1.867,1.079a6.957,6.957,0,0,1,2.864-1.656V9.47a8.742,8.742,0,0,1,3.538,0v2.156a6.957,6.957,0,0,1,2.864,1.656L33.4,12.2a8.715,8.715,0,0,1,1.771,3.063l-1.868,1.078a7.025,7.025,0,0,1,0,3.31l1.868,1.078A8.71,8.71,0,0,1,33.4,23.8Zm-6.5-9.667A3.871,3.871,0,1,0,30.773,18,3.875,3.875,0,0,0,26.9,14.129Zm0,6.452A2.581,2.581,0,1,1,29.482,18,2.584,2.584,0,0,1,26.9,20.581Z" transform="translate(-17.276 -8)"/></svg>